<?xml version="1.0" encoding="UTF-8" standalone="no"?>
<!DOCTYPE svg PUBLIC "-//W3C//DTD SVG 1.1//EN" "http://www.w3.org/Graphics/SVG/1.1/DTD/svg11.dtd">
<svg width="100%" height="100%" viewBox="0 0 150 373" version="1.1" xmlns="http://www.w3.org/2000/svg" xmlns:xlink="http://www.w3.org/1999/xlink" xml:space="preserve" xmlns:serif="http://www.serif.com/" style="fill-rule:evenodd;clip-rule:evenodd;stroke-linecap:round;stroke-linejoin:round;stroke-miterlimit:1.5;">
    <g transform="matrix(1,0,0,1,-1024,-14)">
        <g id="capacityGroup">
            <g id="battery" transform="matrix(1.14884,0,0,1.38954,-163.57,-121.832)">
                <path d="M1083.65,115.669L1047.68,115.669C1040.96,115.669 1035.5,121.129 1035.5,127.853L1035.5,352.816C1035.5,359.541 1040.96,365 1047.68,365L1150.32,365C1157.04,365 1162.5,359.541 1162.5,352.816L1162.5,127.853C1162.5,121.129 1157.04,115.669 1150.32,115.669L1114.35,115.669L1114.35,105.023C1114.35,101.666 1111.62,98.94 1108.27,98.94L1089.73,98.94C1086.38,98.94 1083.65,101.666 1083.65,105.023L1083.65,115.669Z" style="stroke:rgb(246,215,2);stroke-width:2.35px;"/>
            </g>
            <g id="levels" transform="matrix(0.987887,0,0,1.38954,13.3123,-77.9088)">
                <g transform="matrix(0.633403,0,0,0.415499,402.89,174.908)">
                    <path d="M1162.5,317.358C1168.11,317.358 1172.66,312.428 1172.66,306.346L1172.66,244.81C1172.66,238.728 1168.11,233.798 1162.5,233.798L1035.5,233.798C1029.89,233.798 1025.34,238.728 1025.34,244.81L1025.34,306.346C1025.34,312.428 1029.89,317.358 1035.5,317.358L1162.5,317.358Z" style="fill:rgb(246,215,2);fill-opacity:0.8;stroke:rgb(47,41,0);stroke-opacity:0.8;stroke-width:4.98px;"/>
                </g>
                <g transform="matrix(0.633403,0,0,0.415499,402.89,122.102)">
                    <path d="M1162.5,317.358C1168.11,317.358 1172.66,312.428 1172.66,306.346L1172.66,244.81C1172.66,238.728 1168.11,233.798 1162.5,233.798L1035.5,233.798C1029.89,233.798 1025.34,238.728 1025.34,244.81L1025.34,306.346C1025.34,312.428 1029.89,317.358 1035.5,317.358L1162.5,317.358Z" style="fill:rgb(246,215,2);fill-opacity:0.8;stroke:rgb(47,41,0);stroke-opacity:0.8;stroke-width:4.98px;"/>
                </g>
                <g transform="matrix(0.633403,0,0,0.415499,402.89,69.296)">
                    <path d="M1162.5,317.358C1168.11,317.358 1172.66,312.428 1172.66,306.346L1172.66,244.81C1172.66,238.728 1168.11,233.798 1162.5,233.798L1035.5,233.798C1029.89,233.798 1025.34,238.728 1025.34,244.81L1025.34,306.346C1025.34,312.428 1029.89,317.358 1035.5,317.358L1162.5,317.358Z" style="fill:rgb(246,215,2);fill-opacity:0.8;stroke:rgb(47,41,0);stroke-opacity:0.8;stroke-width:4.98px;"/>
                </g>
                <g transform="matrix(0.633403,0,0,0.415499,402.89,16.4899)">
                    <path d="M1162.5,317.358C1168.11,317.358 1172.66,312.428 1172.66,306.346L1172.66,244.81C1172.66,238.728 1168.11,233.798 1162.5,233.798L1035.5,233.798C1029.89,233.798 1025.34,238.728 1025.34,244.81L1025.34,306.346C1025.34,312.428 1029.89,317.358 1035.5,317.358L1162.5,317.358Z" style="fill:rgb(246,215,2);fill-opacity:0.8;stroke:rgb(47,41,0);stroke-opacity:0.8;stroke-width:4.98px;"/>
                </g>
            </g>
        </g>
    </g>
</svg>
