<?xml version="1.0" encoding="UTF-8" standalone="no"?>
<!DOCTYPE svg PUBLIC "-//W3C//DTD SVG 1.1//EN" "http://www.w3.org/Graphics/SVG/1.1/DTD/svg11.dtd">
<svg width="100%" height="100%" viewBox="0 0 252 260" version="1.1" xmlns="http://www.w3.org/2000/svg" xmlns:xlink="http://www.w3.org/1999/xlink" xml:space="preserve" xmlns:serif="http://www.serif.com/" style="fill-rule:evenodd;clip-rule:evenodd;stroke-linecap:square;stroke-linejoin:round;stroke-miterlimit:1.5;">
    <g transform="matrix(1,0,0,1,-1873,-53)">
        <g id="stateOfConnectionGroup">
            <g id="stand" transform="matrix(0.527137,-0.0490195,0.0528619,0.568457,939.656,223.733)">
                <path d="M2056,236L2022,236L1998.28,325.718L2079.72,332.448L2056,236Z" style="stroke:rgb(246,215,2);stroke-width:6.36px;"/>
            </g>
            <g id="antenna" transform="matrix(0.848722,0,0,0.848722,295.817,12.8852)">
                <path d="M1974.01,143.314C1973.83,143.32 1973.65,143.323 1973.47,143.323C1964.38,143.323 1957,135.944 1957,126.855C1957,117.767 1964.38,110.388 1973.47,110.388C1982.56,110.388 1989.93,117.767 1989.93,126.855C1989.93,129.971 1989.07,132.885 1987.56,135.372L2020.01,191.572L2006.4,199.428L1974.01,143.314Z" style="stroke:rgb(246,215,2);stroke-width:4.12px;"/>
            </g>
            <g id="sphere" transform="matrix(0.866025,-0.5,0.5,0.866025,163.77,948.742)">
                <path d="M1847.02,224.321C1848.29,296.859 1907.45,355 1980,355C2053.45,355 2113,295.454 2113,222C2113,222 2025.47,227.737 1981.64,228.12C1937.31,228.507 1847.02,224.321 1847.02,224.321Z" style="stroke:rgb(246,215,2);stroke-width:3.5px;"/>
            </g>
            <g id="waves" transform="matrix(0.298922,-0.222766,0.309693,0.415567,1132.98,528.616)">
                <g transform="matrix(3.47127,3.49412e-16,-4.39483e-16,4.36608,-4482.06,-3054.92)">
                    <path d="M1992.11,765.815L1990.44,764.598C1992.55,764.064 1995.46,763.593 1999.14,763.593C2002.65,763.593 2005.36,764.024 2007.31,764.525C2007.31,764.525 2005.54,765.815 2005.54,765.815C2003.86,765.439 2001.66,765.147 1998.83,765.147C1995.99,765.147 1993.79,765.439 1992.11,765.815Z" style="fill:rgb(246,215,2);fill-opacity:0.7;stroke:rgb(246,215,2);stroke-opacity:0.7;stroke-width:1.63px;stroke-linecap:round;"/>
                </g>
                <g transform="matrix(3.47127,3.49412e-16,-4.39483e-16,4.36608,-4482.06,-3054.92)">
                    <path d="M1984.45,760.226L1982.1,758.514C1985.35,757.35 1991.18,755.829 1999.48,755.829C2007.41,755.829 2012.77,757.219 2015.78,758.342C2015.78,758.342 2013.27,760.172 2013.27,760.172C2010.59,759.136 2005.95,757.886 1999.14,757.886C1992.18,757.886 1987.25,759.196 1984.45,760.226Z" style="fill:rgb(246,215,2);fill-opacity:0.65;stroke:rgb(246,215,2);stroke-opacity:0.65;stroke-width:1.63px;stroke-linecap:round;"/>
                </g>
                <g transform="matrix(3.47127,3.49412e-16,-4.39483e-16,4.36608,-4482.06,-3054.92)">
                    <path d="M1976.29,754.276L1973.04,751.901C1977.28,749.751 1986.09,745.566 1999.48,745.566C2012.48,745.566 2020.83,749.595 2024.86,751.723C2024.86,751.723 2021.57,754.124 2021.57,754.124C2018.18,752.583 2011,750.122 1999.48,750.122C1987.53,750.122 1979.74,752.78 1976.29,754.276Z" style="fill:rgb(246,215,2);fill-opacity:0.6;stroke:rgb(246,215,2);stroke-opacity:0.6;stroke-width:1.63px;stroke-linecap:round;"/>
                </g>
            </g>
        </g>
    </g>
</svg>
