<?xml version="1.0" encoding="UTF-8" standalone="no"?>
<!DOCTYPE svg PUBLIC "-//W3C//DTD SVG 1.1//EN" "http://www.w3.org/Graphics/SVG/1.1/DTD/svg11.dtd">
<svg width="100%" height="100%" viewBox="0 0 384 276" version="1.1" xmlns="http://www.w3.org/2000/svg" xmlns:xlink="http://www.w3.org/1999/xlink" xml:space="preserve" xmlns:serif="http://www.serif.com/" style="fill-rule:evenodd;clip-rule:evenodd;stroke-linecap:round;stroke-linejoin:round;stroke-miterlimit:1.5;">
    <g transform="matrix(1,0,0,1,-8,-62)">
        <g transform="matrix(0.5,0,0,0.666667,0,0)">
            <g id="idGroup">
                <g id="card" transform="matrix(2.26866,0,0,1.70149,-63.9403,-93.8955)">
                    <path d="M372,135.143C372,122.37 361.63,112 348.857,112L60.143,112C47.37,112 37,122.37 37,135.143L37,327.857C37,340.63 47.37,351 60.143,351L348.857,351C361.63,351 372,340.63 372,327.857L372,135.143Z" style="stroke:rgb(246,215,2);stroke-width:2.64px;"/>
                </g>
                <g id="batteryBg" transform="matrix(0.802985,0,0,0.671642,101.29,80.841)">
                    <path d="M372,135.143C372,122.37 360.435,112 346.19,112L62.81,112C48.565,112 37,122.37 37,135.143L37,327.857C37,340.63 48.565,351 62.81,351L346.19,351C360.435,351 372,340.63 372,327.857L372,135.143Z" style="fill:rgb(246,215,2);fill-opacity:0.5;"/>
                </g>
                <g id="battery" transform="matrix(2.71616,0,0,2.03712,-74.0198,-151.222)">
                    <path d="M120.05,162L107.9,162C106.851,162 106,162.851 106,163.9L106,219.6C106,220.649 106.851,221.5 107.9,221.5L142.1,221.5C143.149,221.5 144,220.649 144,219.6L144,163.9C144,162.851 143.149,162 142.1,162L129.95,162L129.95,157.909C129.95,157.691 129.728,157.514 129.455,157.514L120.545,157.514C120.272,157.514 120.05,157.691 120.05,157.909L120.05,162Z" style="stroke:rgb(25,59,74);stroke-width:1.1px;"/>
                </g>
                <g id="lines" transform="matrix(1,0,0,1,0,-32.25)">
                    <g opacity="0.5">
                        <g transform="matrix(2,0,0,1.5,1.7053e-13,-11.4796)">
                            <path d="M213,147.072C213,147.072 217.216,146.992 224,146.923C225.919,146.903 228.043,146.865 230.336,146.88C233.258,146.898 236.45,147.054 239.84,147.067C242.135,147.075 244.518,146.987 246.968,146.979C252.285,146.961 257.911,147.056 263.6,147.072C292.485,147.154 323,147.072 323,147.072C324.242,147.072 325.25,146.064 325.25,144.822C325.25,143.581 324.242,142.572 323,142.572C323,142.572 292.485,142.491 263.6,142.572C257.911,142.588 252.285,142.684 246.968,142.666C244.518,142.658 242.135,142.569 239.84,142.578C236.449,142.59 233.258,142.746 230.336,142.765C228.043,142.78 225.919,142.741 224,142.722C217.216,142.652 213,142.572 213,142.572C211.758,142.572 210.75,143.581 210.75,144.822C210.75,146.064 211.758,147.072 213,147.072Z" style="fill:rgb(246,215,2);"/>
                        </g>
                        <g transform="matrix(2,0,0,1.5,1.7053e-13,30.6858)">
                            <path d="M213,147.072C213,147.072 217.216,146.992 224,146.923C225.919,146.903 228.043,146.865 230.336,146.88C233.258,146.898 236.45,147.054 239.84,147.067C242.135,147.075 244.518,146.987 246.968,146.979C252.285,146.961 257.911,147.056 263.6,147.072C292.485,147.154 323,147.072 323,147.072C324.242,147.072 325.25,146.064 325.25,144.822C325.25,143.581 324.242,142.572 323,142.572C323,142.572 292.485,142.491 263.6,142.572C257.911,142.588 252.285,142.684 246.968,142.666C244.518,142.658 242.135,142.569 239.84,142.578C236.449,142.59 233.258,142.746 230.336,142.765C228.043,142.78 225.919,142.741 224,142.722C217.216,142.652 213,142.572 213,142.572C211.758,142.572 210.75,143.581 210.75,144.822C210.75,146.064 211.758,147.072 213,147.072Z" style="fill:rgb(246,215,2);"/>
                        </g>
                        <g transform="matrix(2,0,0,1.5,1.7053e-13,72.8511)">
                            <path d="M213,147.072C213,147.072 217.216,146.992 224,146.923C225.919,146.903 228.043,146.865 230.336,146.88C233.258,146.898 236.45,147.054 239.84,147.067C242.135,147.075 244.518,146.987 246.968,146.979C252.285,146.961 257.911,147.056 263.6,147.072C292.485,147.154 323,147.072 323,147.072C324.242,147.072 325.25,146.064 325.25,144.822C325.25,143.581 324.242,142.572 323,142.572C323,142.572 292.485,142.491 263.6,142.572C257.911,142.588 252.285,142.684 246.968,142.666C244.518,142.658 242.135,142.569 239.84,142.578C236.449,142.59 233.258,142.746 230.336,142.765C228.043,142.78 225.919,142.741 224,142.722C217.216,142.652 213,142.572 213,142.572C211.758,142.572 210.75,143.581 210.75,144.822C210.75,146.064 211.758,147.072 213,147.072Z" style="fill:rgb(246,215,2);"/>
                        </g>
                        <g transform="matrix(2,0,0,1.5,1.7053e-13,115.017)">
                            <path d="M213,147.072C213,147.072 217.216,146.992 224,146.923C225.919,146.903 228.043,146.865 230.336,146.88C233.258,146.898 236.45,147.054 239.84,147.067C242.135,147.075 244.518,146.987 246.968,146.979C252.285,146.961 257.911,147.056 263.6,147.072C292.485,147.154 323,147.072 323,147.072C324.242,147.072 325.25,146.064 325.25,144.822C325.25,143.581 324.242,142.572 323,142.572C323,142.572 292.485,142.491 263.6,142.572C257.911,142.588 252.285,142.684 246.968,142.666C244.518,142.658 242.135,142.569 239.84,142.578C236.449,142.59 233.258,142.746 230.336,142.765C228.043,142.78 225.919,142.741 224,142.722C217.216,142.652 213,142.572 213,142.572C211.758,142.572 210.75,143.581 210.75,144.822C210.75,146.064 211.758,147.072 213,147.072Z" style="fill:rgb(246,215,2);"/>
                        </g>
                        <g transform="matrix(4.68182,0,0,1.5,-866.227,157.182)">
                            <path d="M213,147.072C213,147.072 217.217,146.992 224,146.923C225.919,146.903 228.044,146.865 230.336,146.88C233.257,146.898 236.451,147.054 239.84,147.067C242.135,147.075 244.518,146.987 246.968,146.979C252.285,146.961 257.911,147.056 263.6,147.072C292.485,147.154 323,147.072 323,147.072C323.53,147.072 323.961,146.064 323.961,144.822C323.961,143.581 323.53,142.572 323,142.572C323,142.572 292.485,142.491 263.6,142.572C257.911,142.588 252.285,142.684 246.968,142.666C244.518,142.658 242.134,142.569 239.84,142.578C236.451,142.59 233.257,142.746 230.336,142.765C228.043,142.78 225.919,142.741 224,142.722C217.217,142.652 213,142.572 213,142.572C212.47,142.572 212.039,143.581 212.039,144.822C212.039,146.064 212.47,147.072 213,147.072Z" style="fill:rgb(246,215,2);"/>
                        </g>
                        <g transform="matrix(4.68182,0,0,1.5,-866.227,199.347)">
                            <path d="M213,147.072C213,147.072 217.217,146.992 224,146.923C225.919,146.903 228.044,146.865 230.336,146.88C233.257,146.898 236.451,147.054 239.84,147.067C242.135,147.075 244.518,146.987 246.968,146.979C252.285,146.961 257.911,147.056 263.6,147.072C292.485,147.154 323,147.072 323,147.072C323.53,147.072 323.961,146.064 323.961,144.822C323.961,143.581 323.53,142.572 323,142.572C323,142.572 292.485,142.491 263.6,142.572C257.911,142.588 252.285,142.684 246.968,142.666C244.518,142.658 242.134,142.569 239.84,142.578C236.451,142.59 233.257,142.746 230.336,142.765C228.043,142.78 225.919,142.741 224,142.722C217.217,142.652 213,142.572 213,142.572C212.47,142.572 212.039,143.581 212.039,144.822C212.039,146.064 212.47,147.072 213,147.072Z" style="fill:rgb(246,215,2);"/>
                        </g>
                        <g transform="matrix(4.68182,0,0,1.5,-866.227,241.513)">
                            <path d="M213,147.072C213,147.072 217.217,146.992 224,146.923C225.919,146.903 228.044,146.865 230.336,146.88C233.257,146.898 236.451,147.054 239.84,147.067C242.135,147.075 244.518,146.987 246.968,146.979C252.285,146.961 257.911,147.056 263.6,147.072C292.485,147.154 323,147.072 323,147.072C323.53,147.072 323.961,146.064 323.961,144.822C323.961,143.581 323.53,142.572 323,142.572C323,142.572 292.485,142.491 263.6,142.572C257.911,142.588 252.285,142.684 246.968,142.666C244.518,142.658 242.134,142.569 239.84,142.578C236.451,142.59 233.257,142.746 230.336,142.765C228.043,142.78 225.919,142.741 224,142.722C217.217,142.652 213,142.572 213,142.572C212.47,142.572 212.039,143.581 212.039,144.822C212.039,146.064 212.47,147.072 213,147.072Z" style="fill:rgb(246,215,2);"/>
                        </g>
                    </g>
                </g>
            </g>
        </g>
    </g>
</svg>
