<?xml version="1.0" encoding="UTF-8" standalone="no"?>
<!DOCTYPE svg PUBLIC "-//W3C//DTD SVG 1.1//EN" "http://www.w3.org/Graphics/SVG/1.1/DTD/svg11.dtd">
<svg width="100%" height="100%" viewBox="0 0 306 262" version="1.1" xmlns="http://www.w3.org/2000/svg" xmlns:xlink="http://www.w3.org/1999/xlink" xml:space="preserve" xmlns:serif="http://www.serif.com/" style="fill-rule:evenodd;clip-rule:evenodd;stroke-linecap:round;stroke-linejoin:round;stroke-miterlimit:1.5;">
    <g transform="matrix(1,0,0,1,-3646,-70)">
        <g id="lastConnectionTimeGroup" transform="matrix(0.85635,0,0,0.700117,545.725,70.9123)">
            <g transform="matrix(1,0,0,1,8,-5)">
                <path d="M3961,63.299C3961,47.68 3950.63,35 3937.86,35L3644.14,35C3631.37,35 3621,47.68 3621,63.299L3621,346.701C3621,362.32 3631.37,375 3644.14,375L3937.86,375C3950.63,375 3961,362.32 3961,346.701L3961,63.299Z" style="stroke:rgb(246,215,2);stroke-width:3.84px;"/>
            </g>
            <g transform="matrix(0.931561,0,0,0.931561,264.47,21.2408)">
                <g opacity="0.9">
                    <g transform="matrix(0.840777,0,0,1.42833,565.324,-58.4665)">
                        <path d="M3728,152.196C3728,150.432 3726.01,149 3723.56,149L3682.44,149C3679.99,149 3678,150.432 3678,152.196L3678,177.761C3678,179.525 3679.99,180.957 3682.44,180.957L3723.56,180.957C3726.01,180.957 3728,179.525 3728,177.761L3728,152.196Z" style="fill:rgb(246,215,2);"/>
                    </g>
                    <g transform="matrix(0.840777,0,0,1.42833,642.311,-58.4665)">
                        <path d="M3728,152.196C3728,150.432 3726.01,149 3723.56,149L3682.44,149C3679.99,149 3678,150.432 3678,152.196L3678,177.761C3678,179.525 3679.99,180.957 3682.44,180.957L3723.56,180.957C3726.01,180.957 3728,179.525 3728,177.761L3728,152.196Z" style="fill:rgb(246,215,2);"/>
                    </g>
                    <g transform="matrix(0.840777,0,0,1.42833,719.298,-58.4665)">
                        <path d="M3728,152.196C3728,150.432 3726.01,149 3723.56,149L3682.44,149C3679.99,149 3678,150.432 3678,152.196L3678,177.761C3678,179.525 3679.99,180.957 3682.44,180.957L3723.56,180.957C3726.01,180.957 3728,179.525 3728,177.761L3728,152.196Z" style="fill:rgb(246,215,2);"/>
                    </g>
                    <g transform="matrix(0.840777,0,0,1.42833,796.285,-58.4665)">
                        <path d="M3728,152.196C3728,150.432 3726.01,149 3723.56,149L3682.44,149C3679.99,149 3678,150.432 3678,152.196L3678,177.761C3678,179.525 3679.99,180.957 3682.44,180.957L3723.56,180.957C3726.01,180.957 3728,179.525 3728,177.761L3728,152.196Z" style="fill:rgb(246,215,2);"/>
                    </g>
                </g>
            </g>
            <g transform="matrix(0.931561,0,0,0.931561,264.47,109.64)">
                <g opacity="0.9">
                    <g transform="matrix(0.840777,0,0,1.42833,565.324,-58.4665)">
                        <path d="M3728,152.196C3728,150.432 3726.01,149 3723.56,149L3682.44,149C3679.99,149 3678,150.432 3678,152.196L3678,177.761C3678,179.525 3679.99,180.957 3682.44,180.957L3723.56,180.957C3726.01,180.957 3728,179.525 3728,177.761L3728,152.196Z" style="fill:rgb(246,215,2);"/>
                    </g>
                    <g transform="matrix(0.840777,0,0,1.42833,642.311,-58.4665)">
                        <path d="M3728,152.196C3728,150.432 3726.01,149 3723.56,149L3682.44,149C3679.99,149 3678,150.432 3678,152.196L3678,177.761C3678,179.525 3679.99,180.957 3682.44,180.957L3723.56,180.957C3726.01,180.957 3728,179.525 3728,177.761L3728,152.196Z" style="fill:rgb(246,215,2);"/>
                    </g>
                    <g transform="matrix(0.840777,0,0,1.42833,719.298,-58.4665)">
                        <path d="M3728,152.196C3728,150.432 3726.01,149 3723.56,149L3682.44,149C3679.99,149 3678,150.432 3678,152.196L3678,177.761C3678,179.525 3679.99,180.957 3682.44,180.957L3723.56,180.957C3726.01,180.957 3728,179.525 3728,177.761L3728,152.196Z" style="fill:rgb(246,215,2);"/>
                    </g>
                    <g transform="matrix(0.840777,0,0,1.42833,796.285,-58.4665)">
                        <path d="M3728,152.196C3728,150.432 3726.01,149 3723.56,149L3682.44,149C3679.99,149 3678,150.432 3678,152.196L3678,177.761C3678,179.525 3679.99,180.957 3682.44,180.957L3723.56,180.957C3726.01,180.957 3728,179.525 3728,177.761L3728,152.196Z" style="fill:rgb(246,215,2);"/>
                    </g>
                </g>
            </g>
            <g transform="matrix(1.28302,0,0,1,-1073.26,40.8711)">
                <path d="M3665,69.5L3930,69.5" style="fill:none;stroke:rgb(246,215,2);stroke-opacity:0.9;stroke-width:15.2px;stroke-linecap:butt;"/>
            </g>
            <g transform="matrix(0.863117,0,0,1.42833,648.488,-104.263)">
                <path d="M3746,82.5C3746,77.809 3740.85,74 3734.5,74C3728.15,74 3723,77.809 3723,82.5L3723,105.5C3723,110.191 3728.15,114 3734.5,114C3740.85,114 3746,110.191 3746,105.5L3746,82.5Z" style="stroke:rgb(246,215,2);stroke-width:3.41px;stroke-linecap:butt;"/>
            </g>
            <g transform="matrix(0.863117,0,0,1.42833,502.893,-104.263)">
                <path d="M3746,82.5C3746,77.809 3740.85,74 3734.5,74C3728.15,74 3723,77.809 3723,82.5L3723,105.5C3723,110.191 3728.15,114 3734.5,114C3740.85,114 3746,110.191 3746,105.5L3746,82.5Z" style="stroke:rgb(246,215,2);stroke-width:3.41px;stroke-linecap:butt;"/>
            </g>
        </g>
    </g>
</svg>
