<?xml version="1.0" encoding="UTF-8" standalone="no"?>
<!DOCTYPE svg PUBLIC "-//W3C//DTD SVG 1.1//EN" "http://www.w3.org/Graphics/SVG/1.1/DTD/svg11.dtd">
<svg width="100%" height="100%" viewBox="0 0 248 347" version="1.1" xmlns="http://www.w3.org/2000/svg" xmlns:xlink="http://www.w3.org/1999/xlink" xml:space="preserve" xmlns:serif="http://www.serif.com/" style="fill-rule:evenodd;clip-rule:evenodd;stroke-linecap:round;stroke-linejoin:round;stroke-miterlimit:1.5;">
    <g transform="matrix(1,0,0,1,-525,-31)">
        <g transform="matrix(1,0,0,1,-1,0)">
            <g transform="matrix(1,0,0,1,-2112.21,-955.171)">
                <g id="locationGroup">
                    <path id="locationBody" d="M2762.21,1331.63C2762.21,1331.63 2884.24,1176.31 2884.24,1109.74C2884.24,1042.39 2829.56,987.711 2762.21,987.711C2694.86,987.711 2640.19,1042.39 2640.19,1109.74C2640.19,1176.31 2762.21,1331.63 2762.21,1331.63ZM2762.21,1058.43C2789.72,1058.43 2812.06,1080.76 2812.06,1108.27C2812.06,1135.78 2789.72,1158.12 2762.21,1158.12C2734.7,1158.12 2712.37,1135.78 2712.37,1108.27C2712.37,1080.76 2734.7,1058.43 2762.21,1058.43Z" style="stroke:rgb(246,215,2);stroke-width:3px;"/>
                </g>
            </g>
        </g>
    </g>
</svg>
