<?xml version="1.0" encoding="UTF-8" standalone="no"?>
<!DOCTYPE svg PUBLIC "-//W3C//DTD SVG 1.1//EN" "http://www.w3.org/Graphics/SVG/1.1/DTD/svg11.dtd">
<svg width="100%" height="100%" viewBox="0 0 234 364" version="1.1" xmlns="http://www.w3.org/2000/svg" xmlns:xlink="http://www.w3.org/1999/xlink" xml:space="preserve" xmlns:serif="http://www.serif.com/" style="fill-rule:evenodd;clip-rule:evenodd;stroke-linecap:round;stroke-linejoin:round;stroke-miterlimit:1.5;">
    <g transform="matrix(1,0,0,1,-3240,-7)">
        <g id="recentIssuesGroup" transform="matrix(1,0,0,1,8.11155,-15.1528)">
            <g id="battery_group">
                <g transform="matrix(1,0,0,1,0.956655,-0.728714)">
                    <path d="M3276.05,195.296L3276.05,367.921C3276.05,377.265 3282.32,384.851 3290.05,384.851L3407.95,384.851C3415.68,384.851 3421.95,377.265 3421.95,367.921L3421.95,252.295L3378.65,216.747L3339.73,230.996C3334.83,232.791 3329.07,232.127 3324.99,229.294L3276.05,195.296Z" style="stroke:rgb(246,215,2);stroke-width:3px;"/>
                </g>
                <g transform="matrix(0.971775,0.23591,-0.23591,0.971775,150.742,-778.197)">
                    <path d="M3276.05,165.969L3336.34,207.85L3376.02,193.324C3381.3,191.389 3387.53,192.322 3391.59,195.657L3421.95,220.58L3421.95,55.325C3421.95,45.981 3415.68,38.395 3407.95,38.395L3366.64,38.395L3366.64,23.602C3366.64,18.936 3363.5,15.149 3359.65,15.149L3338.35,15.149C3334.5,15.149 3331.37,18.936 3331.37,23.602L3331.37,38.395L3290.05,38.395C3282.32,38.395 3276.05,45.981 3276.05,55.325L3276.05,165.969Z" style="stroke:rgb(246,215,2);stroke-width:3px;"/>
                </g>
            </g>
            <g id="shattered_pieces_group">
                <g transform="matrix(0.0510861,0.147142,-0.561603,0.194983,3178.06,-318.624)">
                    <path d="M3258.25,134.611C3257.58,133.924 3255.21,133.443 3252.5,133.443C3249.79,133.443 3247.42,133.924 3246.75,134.611L3214.25,167.611C3213.79,168.077 3214.18,168.573 3215.3,168.953C3216.43,169.334 3218.16,169.557 3220,169.557L3285,169.557C3286.84,169.557 3288.57,169.334 3289.7,168.953C3290.82,168.573 3291.21,168.077 3290.75,167.611C3290.75,167.611 3258.25,134.611 3258.25,134.611Z" style="fill:rgb(246,215,2);stroke:rgb(246,215,2);stroke-width:6.9px;"/>
                </g>
                <g transform="matrix(-0.209476,0.120941,-0.353247,-0.611841,4007.57,-152.045)">
                    <path d="M3256.12,134.582C3255.6,134.049 3254.14,133.69 3252.5,133.69C3250.86,133.69 3249.4,134.049 3248.88,134.582L3216.38,167.582C3215.98,167.981 3216.17,168.421 3216.89,168.764C3217.61,169.107 3218.77,169.31 3220,169.31L3285,169.31C3286.23,169.31 3287.39,169.107 3288.11,168.764C3288.83,168.421 3289.02,167.981 3288.62,167.582L3256.12,134.582Z" style="fill:rgb(246,215,2);stroke:rgb(246,215,2);stroke-width:5.68px;"/>
                </g>
                <g transform="matrix(-0.169721,0.293966,-0.707355,-0.408392,3910.09,-737.019)">
                    <path d="M3255.02,134.571C3254.6,134.145 3253.61,133.867 3252.5,133.867C3251.39,133.867 3250.4,134.145 3249.98,134.571L3217.48,167.571C3217.13,167.92 3217.23,168.318 3217.74,168.631C3218.24,168.945 3219.09,169.133 3220,169.133L3285,169.133C3285.91,169.133 3286.76,168.945 3287.26,168.631C3287.77,168.318 3287.87,167.92 3287.52,167.571L3255.02,134.571Z" style="fill:rgb(246,215,2);stroke:rgb(246,215,2);stroke-width:4.8px;"/>
                </g>
            </g>
            <g id="exclamation_mark_group">
                <g transform="matrix(0.109679,0,0,0.404466,2988.54,137.327)">
                    <path d="M3507.1,23.716C3507.63,20.742 3504.83,17.819 3499.37,15.642C3493.91,13.466 3486.27,12.231 3478.27,12.231L3207.33,12.231C3199.34,12.231 3191.7,13.466 3186.23,15.642C3180.77,17.819 3177.97,20.742 3178.5,23.716L3229.48,308.716C3230.49,314.374 3243.1,318.769 3258.31,318.769L3427.29,318.769C3442.5,318.769 3455.11,314.374 3456.12,308.716L3507.1,23.716Z" style="fill:rgb(246,215,2);stroke:rgb(246,215,2);stroke-width:10.12px;"/>
                </g>
                <g transform="matrix(1,0,0,1,-8.11155,15.1528)">
                    <circle cx="3363.72" cy="282.715" r="14.715" style="fill:rgb(246,215,2);stroke:rgb(246,215,2);stroke-width:4.5px;stroke-linecap:butt;"/>
                </g>
            </g>
        </g>
    </g>
</svg>
