<?xml version="1.0" encoding="UTF-8" standalone="no"?><!DOCTYPE svg PUBLIC "-//W3C//DTD SVG 1.1//EN" "http://www.w3.org/Graphics/SVG/1.1/DTD/svg11.dtd"><svg width="100%" height="100%" viewBox="0 0 400 400" version="1.1" xmlns="http://www.w3.org/2000/svg" xmlns:xlink="http://www.w3.org/1999/xlink" xml:space="preserve" xmlns:serif="http://www.serif.com/" style="fill-rule:evenodd;clip-rule:evenodd;stroke-linecap:round;stroke-linejoin:round;stroke-miterlimit:1.5;"><rect id="stateOfHealth" x="0" y="0" width="400" height="400" style="fill:none;"/><g id="stateOfHealth1" serif:id="stateOfHealth"><path id="heartGroup" d="M199.267,340.469c0.759,-0 1.917,-0.103 3.392,-0.615c1.514,-0.526 4.504,-2.01 8.592,-4.503c17.103,-10.428 58.064,-40.274 92.111,-78.227c21.677,-24.162 40.489,-51.617 49.032,-79.394c8.999,-29.258 6.91,-58.91 -14.029,-86.028c-13.867,-17.959 -28.272,-27.064 -42.175,-30.512c-21.081,-5.228 -41.515,2.507 -58.684,14.761c-17.008,12.138 -30.701,28.572 -38.388,38.883c-7.855,-10.09 -21.768,-26.131 -38.879,-38.028c-17.281,-12.015 -37.722,-19.651 -58.542,-14.699c-13.824,3.287 -28.028,12.109 -41.528,29.595c-19.698,25.512 -21.248,54.414 -11.962,83.472c8.759,27.408 27.382,54.995 48.694,79.507c33.527,38.56 73.569,69.529 90.323,80.382c4.042,2.619 7.01,4.18 8.519,4.734c1.524,0.56 2.73,0.672 3.524,0.672Z" style="stroke:#f6d702;stroke-width:3px;"/></g></svg>