<?xml version="1.0" encoding="UTF-8" standalone="no"?><!DOCTYPE svg PUBLIC "-//W3C//DTD SVG 1.1//EN" "http://www.w3.org/Graphics/SVG/1.1/DTD/svg11.dtd"><svg width="100%" height="100%" viewBox="0 0 400 400" version="1.1" xmlns="http://www.w3.org/2000/svg" xmlns:xlink="http://www.w3.org/1999/xlink" xml:space="preserve" xmlns:serif="http://www.serif.com/" style="fill-rule:evenodd;clip-rule:evenodd;stroke-linecap:round;stroke-linejoin:round;stroke-miterlimit:1.5;"><rect id="stateOfCharge" x="0" y="0" width="400" height="400" style="fill:none;"/><path id="lightningGroup" d="M96.615,343.041c-2.35,3.328 -1.895,7.877 1.066,10.675c2.961,2.798 7.529,2.993 10.718,0.458l193.392,-153.719c2.425,-1.928 3.555,-5.059 2.919,-8.091c-0.636,-3.032 -2.929,-5.446 -5.924,-6.237l-111.02,-29.301c0,-0 83.521,-97.93 83.521,-97.93c2.715,-3.183 2.593,-7.901 -0.282,-10.941c-2.876,-3.039 -7.58,-3.421 -10.909,-0.887l-161.752,123.166c-2.465,1.876 -3.659,4.982 -3.087,8.026c0.571,3.044 2.812,5.505 5.789,6.359l89.323,25.629c-0,-0 -93.754,132.793 -93.754,132.793Z" style="stroke:#f6d702;stroke-width:3px;"/></svg>